<svg fill="none" height="19" viewBox="0 0 18 19" width="18" xmlns="http://www.w3.org/2000/svg"><g fill="#f9fafb"><path d="m14.2501 16.6201h-10.49998c-1.5166 0-2.75-1.2334-2.75-2.75v-8.49998c0-1.5166 1.2334-2.75 2.75-2.75h10.49998c1.5166 0 2.75 1.2334 2.75 2.75v8.49998c0 1.5166-1.2334 2.75-2.75 2.75z" opacity=".4"/><path d="m4.00012 6.62012c.55229 0 1-.44772 1-1s-.44771-1-1-1c-.55228 0-1 .44772-1 1s.44772 1 1 1z"/><path d="m7.00012 6.62012c.55229 0 1-.44772 1-1s-.44771-1-1-1c-.55228 0-1 .44772-1 1s.44772 1 1 1z"/></g></svg>