<svg fill="none" height="19" viewBox="0 0 19 19" width="19" xmlns="http://www.w3.org/2000/svg"><g fill="#f9fafb"><path d="m6.75012 15.87c-.2432 0-.48439-.0707-.69339-.2099-.3486-.2324-.55661-.6216-.55661-1.0405v-10.00004c0-.4189.20801-.80813.55661-1.04053.3486-.2319.78711-.27437 1.17481-.11377l4.56926 1.90577c.2734.1147.4551.37994.4609.67724l.1426 7.05273c.0059.3081-.1768.5888-.4609.7074l-4.71186 1.9653c-.1553.0645-.31932.0963-.48142.0963z" opacity=".4"/><path d="m16.4845 4.16948-5.21-2.40381c-.3887-.1787-.8379-.14987-1.1982.08203-.36038.231-.57618.62441-.57618 1.05261v13.43599c0 .4287.21582.8228.57708 1.0537.2051.1309.4385.1973.6729.1973.1777 0 .3564-.038.5244-.1156l5.209-2.4038c.6182-.2842 1.0176-.9083 1.0176-1.5895v-7.71957c0-.6812-.3994-1.30515-1.0166-1.58935z"/><path d="m5.50012 6.1638-2.35348-.78564c-.3838-.1274-.80182-.06251-1.12702.17089-.3252.2344-.5195.61326-.5195 1.01416v6.11339c0 .4009.1943.7798.5195 1.0142.2148.1548.47172.2349.73142.2349.1328 0 .2656-.021.3945-.064l2.35449-.7856z" opacity=".2"/></g></svg>