<svg width="18" height="18" viewBox="0 0 18 18" fill="none" xmlns="http://www.w3.org/2000/svg">
<g clip-path="url(#clip0_218_1250)">
<path opacity="0.4" d="M17 10.5205L11.8883 8.6532C9.90221 7.94296 7.92768 9.86636 8.64758 11.8856L10.1506 16H3.75C2.2313 16 1 14.7686 1 13.25V7H17V10.5205Z" fill="#E5E7EB"/>
<path fill-rule="evenodd" clip-rule="evenodd" d="M10.0604 11.3819C9.7708 10.5695 10.5739 9.7762 11.3832 10.0656L17.322 12.2351C18.2439 12.5691 18.2193 13.8877 17.2822 14.1846L14.9325 14.9364L14.1794 17.2913C13.8827 18.2069 12.5723 18.2599 12.2323 17.3269" fill="#E5E7EB"/>
<path d="M14.25 2H3.75C2.2334 2 1 3.2334 1 4.75V7H17V4.75C17 3.2334 15.7666 2 14.25 2ZM3.5 5.5C2.9477 5.5 2.5 5.0522 2.5 4.5C2.5 3.9478 2.9477 3.5 3.5 3.5C4.0523 3.5 4.5 3.9478 4.5 4.5C4.5 5.0522 4.0522 5.5 3.5 5.5ZM6.5 5.5C5.9477 5.5 5.5 5.0522 5.5 4.5C5.5 3.9478 5.9477 3.5 6.5 3.5C7.0523 3.5 7.5 3.9478 7.5 4.5C7.5 5.0522 7.0522 5.5 6.5 5.5Z" fill="#E5E7EB"/>
</g>
<defs>
<clipPath id="clip0_218_1250">
<rect width="18" height="18" fill="white"/>
</clipPath>
</defs>
</svg>
