<svg fill="none" height="21" viewBox="0 0 21 21" width="21" xmlns="http://www.w3.org/2000/svg"><path d="m18.1603 9.0411-1.278-.639c-.101-.307-.227-.602-.371-.887l.453-1.359c.2523-.75491-.4829-1.26489-.948-1.73-.6378-.64013-1.688-.02051-2.383.211-.285-.144-.58-.269-.887-.371l-.639-1.278c-.3571-.7121-1.236-.553-1.8951-.553-.90298 0-1.20618 1.17545-1.53395 1.831-.307.101-.602.227-.887.371l-1.36-.453c-.75475-.25229-1.26501.484-1.73.949-.63858.63858-.01973 1.68679.212 2.382-.144.285-.269.58-.371.887l-1.278.639c-.71256.35523-.553 1.2371-.553 1.895 0 .903 1.17546 1.2062 1.831 1.534.101.307.227.602.371.887l-.453 1.359c-.25233.7549.48289 1.2649.948 1.73.64718.6506 1.69971.0166 2.383-.211.285.144.58.269.887.371l.639 1.278c.3571.7121 1.23595.553 1.89505.553.903 0 1.2062-1.1755 1.534-1.831.307-.101.602-.227.887-.371l1.36.453c.7495.2522 1.267-.486 1.73-.949.6385-.6386.0197-1.6868-.212-2.382.144-.285.269-.58.371-.887l1.278-.639c.8296-.4136.8269-2.37529 0-2.79zm-7.447 4.395c-1.65705 0-3.00005-1.343-3.00005-3s1.343-3 3.00005-3c1.657 0 3 1.343 3 3s-1.343 3-3 3z" fill="#e5e7eb"/></svg>