<svg width="18" height="18" viewBox="0 0 18 18" fill="none" xmlns="http://www.w3.org/2000/svg">
<path opacity="0.4" d="M14.25 16H3.75C2.2334 16 1 14.7666 1 13.25V4.75C1 3.2334 2.2334 2 3.75 2H14.25C15.7666 2 17 3.2334 17 4.75V13.25C17 14.7666 15.7666 16 14.25 16Z" fill="#E5E7EB"/>
<path d="M4 6C4.55229 6 5 5.55228 5 5C5 4.44772 4.55229 4 4 4C3.44772 4 3 4.44772 3 5C3 5.55228 3.44772 6 4 6Z" fill="#E5E7EB"/>
<path d="M7 6C7.55229 6 8 5.55228 8 5C8 4.44772 7.55229 4 7 4C6.44772 4 6 4.44772 6 5C6 5.55228 6.44772 6 7 6Z" fill="#E5E7EB"/>
</svg>
